<?xml version="1.0" encoding="utf-8"?>
<!-- Generator: Adobe Illustrator 27.2.0, SVG Export Plug-In . SVG Version: 6.00 Build 0)  -->
<svg version="1.1" id="a" xmlns="http://www.w3.org/2000/svg" xmlns:xlink="http://www.w3.org/1999/xlink" x="0px" y="0px"
	 viewBox="0 0 260 319.9" style="enable-background:new 0 0 260 319.9;" xml:space="preserve">
<path d="M89.9,143c-0.3-0.2-0.6-0.4-0.9-0.6c-2.5-1.8-5-3.6-7.5-5.3c-0.3-0.2-0.7-0.4-1-0.3c-1.3,0.2-2.1,1-2.5,2.3
	c-0.3,1-0.4,2.1,0.5,2.8c1.1,0.9,2.2,1.7,3.3,2.5c1.5,1.1,1.8,2.3,0.7,3.8c-0.7,1-1.5,1.9-2.1,3c-1.1,1.8-1.3,3.3-0.2,4.8
	c1,1.3,3,1.5,4.2,0.4c2-1.8,3.5-4.1,5.1-6.2c1-1.4,1.5-2.9,1.5-4.5C91.2,144.4,90.8,143.5,89.9,143z M123.8,150.2
	c-0.5-1-1.1-1.9-2-2.6c-0.9-0.7-1.8-1.5-2.7-2.3c-2-1.7-2-3.2-0.2-5.1c1.2-1.3,2.4-2.7,3.5-4.1c1.3-1.7,0.5-3.4-1-4.8
	c-1.2-1.2-2.9-1-4.3,0.5c-3.1,3.3-6.1,6.7-9.1,10.2c-0.4,0.5-0.5,1.2-0.8,1.8c0,2.1,1,3.8,2.3,5.1v0c2.5,2.4,5.2,4.8,8.3,6.6
	c1.5,0.9,2.9,0.8,4.3,0.1C123.8,154.6,124.7,151.9,123.8,150.2z M123.8,150.2c-0.5-1-1.1-1.9-2-2.6c-0.9-0.7-1.8-1.5-2.7-2.3
	c-2-1.7-2-3.2-0.2-5.1c1.2-1.3,2.4-2.7,3.5-4.1c1.3-1.7,0.5-3.4-1-4.8c-1.2-1.2-2.9-1-4.3,0.5c-3.1,3.3-6.1,6.7-9.1,10.2
	c-0.4,0.5-0.5,1.2-0.8,1.8c0,2.1,1,3.8,2.3,5.1v0c2.5,2.4,5.2,4.8,8.3,6.6c1.5,0.9,2.9,0.8,4.3,0.1
	C123.8,154.6,124.7,151.9,123.8,150.2z M89.9,143c-0.3-0.2-0.6-0.4-0.9-0.6c-2.5-1.8-5-3.6-7.5-5.3c-0.3-0.2-0.7-0.4-1-0.3
	c-1.3,0.2-2.1,1-2.5,2.3c-0.3,1-0.4,2.1,0.5,2.8c1.1,0.9,2.2,1.7,3.3,2.5c1.5,1.1,1.8,2.3,0.7,3.8c-0.7,1-1.5,1.9-2.1,3
	c-1.1,1.8-1.3,3.3-0.2,4.8c1,1.3,3,1.5,4.2,0.4c2-1.8,3.5-4.1,5.1-6.2c1-1.4,1.5-2.9,1.5-4.5C91.2,144.4,90.8,143.5,89.9,143z
	 M123.8,150.2c-0.5-1-1.1-1.9-2-2.6c-0.9-0.7-1.8-1.5-2.7-2.3c-2-1.7-2-3.2-0.2-5.1c1.2-1.3,2.4-2.7,3.5-4.1c1.3-1.7,0.5-3.4-1-4.8
	c-1.2-1.2-2.9-1-4.3,0.5c-3.1,3.3-6.1,6.7-9.1,10.2c-0.4,0.5-0.5,1.2-0.8,1.8c0,2.1,1,3.8,2.3,5.1v0c2.5,2.4,5.2,4.8,8.3,6.6
	c1.5,0.9,2.9,0.8,4.3,0.1C123.8,154.6,124.7,151.9,123.8,150.2z M89.9,143c-0.3-0.2-0.6-0.4-0.9-0.6c-2.5-1.8-5-3.6-7.5-5.3
	c-0.3-0.2-0.7-0.4-1-0.3c-1.3,0.2-2.1,1-2.5,2.3c-0.3,1-0.4,2.1,0.5,2.8c1.1,0.9,2.2,1.7,3.3,2.5c1.5,1.1,1.8,2.3,0.7,3.8
	c-0.7,1-1.5,1.9-2.1,3c-1.1,1.8-1.3,3.3-0.2,4.8c1,1.3,3,1.5,4.2,0.4c2-1.8,3.5-4.1,5.1-6.2c1-1.4,1.5-2.9,1.5-4.5
	C91.2,144.4,90.8,143.5,89.9,143z M219.9,99.8c0-10.2-4.6-18.1-13.3-23.3c-9.6-5.7-19.3-11.2-29-16.8c-11.4-6.6-22.9-13.2-34.4-19.9
	c-9-5.2-18.2-5.6-27.4-0.6c-4.8,2.6-9.5,5.4-14.3,8.2C85.2,57,68.9,66.5,52.5,75.9c-3.2,1.9-6.2,4-8.5,7c-4,5-5.9,10.7-5.9,17v36.9
	l0,0c0,12.3-0.1,24.6,0,36.9c0.1,10.1,4.5,18,13.2,23.2c10.7,6.4,21.6,12.5,32.4,18.8c10.6,6.1,21.1,12.2,31.7,18.3
	c8.8,5,17.8,5.2,26.6,0.3c10.6-5.9,21.1-12.1,31.6-18.2c10.7-6.2,21.4-12.4,32.1-18.5c9.4-5.4,14.2-13.4,14.2-24.3
	C219.9,148.7,220,124.3,219.9,99.8z M186.4,162.3c-1.9,4.3-4.2,8.4-7.2,12.1c-0.3,0.4-0.6,0.7-1,1.1c-0.7,0.7-1.5,1.3-2.2,2
	c-1.3,1.2-2.6,2.5-3.9,3.6c-1.1,1-2.2,1.9-3.4,2.8c-0.5,0.4-1,0.9-1.3,1.4c-0.1,0.1-0.2,0.3-0.3,0.4c-1.5,2.9-2.2,6.1-2.4,9.3
	c-0.3,4.5-2.3,7.8-6.4,9.8c-8.3,4-16.6,8.1-24.8,12.2c-2.9,1.4-5.7,1.4-8.5-0.1c-8-4.3-16-8.6-24-13c-1.7-0.9-3.4-1.8-5.1-2.8
	c2.2-1.4,2.5-4,3.6-6.1c23.6,8.1,45.7,5.8,66.2-8.7v0c0-0.1,0-0.2-0.1-0.3c-0.1,0.1-0.3,0.1-0.4,0.2c-9.1,5.8-19,9.2-29.8,10.2
	c-9.8,0.9-19.3,0-28.3-3c2,0.7,4.1,1.3,6.2,1.8c-3.7-0.8-7.2-2-10.6-3.4c-0.3-0.1-0.7-0.3-1-0.4c-0.3-0.1-0.7-0.3-1-0.4
	c-19.3-8.8-32.5-26.5-32.5-46.8c0-3.5,0.4-6.9,1.1-10.2c0,0,0-0.1,0-0.1c0.7-2.9,1.6-5.7,2.8-8.5c0,0,0,0,0,0
	c0.5-1.2,0.9-2.5,1.3-3.7c1-3,0.7-6.1,0.6-9.2c-0.4-11.7,1.5-23,6.2-33.7c0.4-0.8,0.9-1.7,1.5-2.4c1.1-1.2,2.5-1.5,3.9-0.7
	c0.9,0.5,1.8,1.2,2.5,2c5.2,5.6,10.3,11.3,15.5,17c0.4,0.4,0.8,0.8,1.2,1.1c0,0.1,0.1,0.1,0.2,0.2h0c-3.8,2.5-8,4.5-11.4,7.5
	c0.1,0.2,0.1,0.3,0.2,0.4c0.6-0.1,1.2-0.1,1.7-0.5c4.2-2.9,8.9-5,13.6-7.2c1.7-0.8,3.6-1.1,5.5-1.5c12.5-2.7,24.9-1.9,37,2.2
	c0.1,0,0.2,0.1,0.3,0.1c-1.2,3.2-2.5,6.5-3.7,9.7c0.7,0.5,0.7,0.5,1-0.3c1.4-3.7,4-6.7,6.5-9.6c0.1-0.1,0.3-0.3,0.4-0.5
	c2.6-3,5.4-5.8,8.2-8.6c2.5-2.6,5.1-5.3,7.7-7.8c0.9-0.9,1.9-1.8,3-2.5c2-1.3,3.5-1,4.7,1c0.8,1.4,1.5,2.9,2,4.4
	c3.7,10.8,5,21.8,4.1,33.2c-0.1,1.6-0.3,3.2-0.5,4.8c-0.1,1.2-0.1,2.4,0.1,3.5c0.2,1,0.5,2,0.8,3c1.7,4.1,2.9,8.3,3.5,12.8
	c0,0.1,0,0.3,0,0.4C190.6,147.9,189.4,155.2,186.4,162.3z"/>
<g>
	<path d="M51.5,282.4c-1.6,0-3.2-0.3-4.5-0.8c-1.4-0.6-2.6-1.4-3.6-2.4c-1-1-1.8-2.3-2.4-3.7c-0.6-1.4-0.8-3-0.8-4.7
		c0-1.6,0.3-3.2,0.9-4.6c0.6-1.4,1.4-2.6,2.4-3.6c1-1,2.3-1.8,3.7-2.4s2.9-0.9,4.6-0.9c1.1,0,2.1,0.1,3.2,0.4c1,0.3,2,0.7,2.8,1.3
		c0.9,0.6,1.6,1.2,2.2,2l-3,3.3c-0.5-0.5-1-1-1.6-1.3c-0.6-0.4-1.1-0.7-1.7-0.9c-0.6-0.2-1.3-0.3-1.9-0.3c-0.9,0-1.8,0.2-2.6,0.5
		c-0.8,0.3-1.5,0.8-2.1,1.4c-0.6,0.6-1.1,1.3-1.4,2.2c-0.4,0.9-0.5,1.8-0.5,2.9c0,1.1,0.2,2,0.5,2.9c0.3,0.9,0.8,1.6,1.4,2.2
		c0.6,0.6,1.4,1.1,2.2,1.4c0.9,0.3,1.8,0.5,2.9,0.5c0.7,0,1.3-0.1,2-0.3c0.6-0.2,1.2-0.5,1.8-0.8c0.5-0.3,1-0.7,1.5-1.2l2.4,3.7
		c-0.5,0.6-1.2,1.1-2.1,1.6c-0.9,0.5-1.8,0.8-2.9,1.1S52.6,282.4,51.5,282.4z"/>
	<path d="M73.7,282.4c-1.7,0-3.2-0.3-4.6-0.9c-1.4-0.6-2.6-1.4-3.6-2.4c-1-1-1.8-2.3-2.4-3.7c-0.6-1.4-0.8-3-0.8-4.6
		c0-1.7,0.3-3.2,0.8-4.6c0.6-1.4,1.3-2.6,2.4-3.7c1-1,2.2-1.8,3.6-2.4c1.4-0.6,2.9-0.9,4.5-0.9c1.7,0,3.2,0.3,4.6,0.9
		c1.4,0.6,2.6,1.4,3.6,2.4s1.8,2.3,2.4,3.7c0.6,1.4,0.8,2.9,0.8,4.6s-0.3,3.2-0.8,4.6c-0.6,1.4-1.3,2.6-2.4,3.7
		c-1,1-2.2,1.9-3.6,2.4S75.4,282.4,73.7,282.4z M73.7,277.9c1,0,1.8-0.2,2.6-0.5c0.8-0.4,1.5-0.8,2-1.5c0.6-0.6,1-1.4,1.4-2.2
		c0.3-0.9,0.5-1.8,0.5-2.8c0-1-0.2-2-0.5-2.8c-0.3-0.9-0.8-1.6-1.4-2.2c-0.6-0.6-1.3-1.1-2-1.5c-0.8-0.4-1.7-0.5-2.6-0.5
		c-0.9,0-1.8,0.2-2.6,0.5c-0.8,0.4-1.5,0.8-2.1,1.5c-0.6,0.6-1.1,1.4-1.4,2.2c-0.3,0.9-0.5,1.8-0.5,2.8c0,1,0.2,2,0.5,2.8
		c0.3,0.9,0.8,1.6,1.4,2.2c0.6,0.6,1.3,1.1,2.1,1.5C71.9,277.7,72.7,277.9,73.7,277.9z"/>
	<path d="M89.4,282.1v-22.4h9.2c1.6,0,3.1,0.3,4.5,0.8c1.3,0.5,2.5,1.3,3.5,2.3c1,1,1.7,2.2,2.2,3.5c0.5,1.4,0.8,2.9,0.8,4.5
		c0,1.6-0.3,3.2-0.8,4.5c-0.5,1.4-1.2,2.6-2.2,3.6c-1,1-2.1,1.8-3.5,2.3c-1.3,0.5-2.8,0.8-4.5,0.8H89.4z M94.2,278.6l-0.5-0.8h4.7
		c1,0,1.8-0.2,2.6-0.5c0.8-0.3,1.4-0.8,2-1.4c0.5-0.6,1-1.3,1.2-2.2c0.3-0.9,0.4-1.8,0.4-2.8c0-1-0.1-2-0.4-2.8
		c-0.3-0.8-0.7-1.6-1.2-2.2c-0.5-0.6-1.2-1.1-2-1.4c-0.8-0.3-1.6-0.5-2.6-0.5h-4.8l0.6-0.8V278.6z"/>
	<path d="M110.5,282.1l8.8-22.4h4.3l8.7,22.4h-4.9l-4.5-12.1c-0.1-0.3-0.3-0.8-0.5-1.3c-0.2-0.5-0.4-1.1-0.6-1.7
		c-0.2-0.6-0.4-1.2-0.5-1.7c-0.2-0.5-0.3-1-0.4-1.4h0.9c-0.1,0.5-0.3,1-0.4,1.5c-0.2,0.5-0.3,1.1-0.5,1.6s-0.4,1.1-0.5,1.6
		c-0.2,0.5-0.4,1-0.5,1.5l-4.5,12H110.5z M114.6,277.4l1.6-3.8h10.3l1.6,3.8H114.6z"/>
	<path d="M135.5,282.1v-22.4h9.9c1.4,0,2.6,0.3,3.8,0.9c1.1,0.6,2,1.5,2.7,2.5c0.7,1.1,1,2.3,1,3.6c0,1.3-0.3,2.6-1,3.7
		c-0.7,1.1-1.5,2-2.7,2.6c-1.1,0.6-2.4,1-3.8,1h-5.3v8H135.5z M140.1,270.2h5.1c0.6,0,1.1-0.1,1.5-0.4c0.4-0.3,0.8-0.6,1-1.1
		c0.2-0.5,0.4-1,0.4-1.6c0-0.6-0.1-1.2-0.4-1.7c-0.3-0.5-0.7-0.8-1.2-1.1s-1.2-0.4-1.9-0.4h-4.4V270.2z M148.2,282.1l-5.7-10.1
		l4.9-0.8l6.3,10.9L148.2,282.1z"/>
	<path d="M157.9,282.1v-22.4h4.8v22.4H157.9z M161.5,275.5l-1-4.4l11.3-11.4h5.8L161.5,275.5z M172.4,282.1l-8.4-11.1l3.3-2.9
		l10.8,14H172.4z"/>
	<path d="M178.8,282.1l8.8-22.4h4.3l8.7,22.4h-4.9l-4.5-12.1c-0.1-0.3-0.3-0.8-0.5-1.3c-0.2-0.5-0.4-1.1-0.6-1.7
		c-0.2-0.6-0.4-1.2-0.5-1.7s-0.3-1-0.4-1.4h0.9c-0.1,0.5-0.3,1-0.4,1.5c-0.2,0.5-0.3,1.1-0.5,1.6s-0.4,1.1-0.5,1.6
		c-0.2,0.5-0.4,1-0.5,1.5l-4.5,12H178.8z M182.9,277.4l1.6-3.8h10.3l1.6,3.8H182.9z"/>
	<path d="M206.8,282.1V264h-6.5v-4.3h18v4.3h-6.7v18.1H206.8z"/>
</g>
</svg>
