<?xml version="1.0" encoding="UTF-8"?><svg id="a" xmlns="http://www.w3.org/2000/svg" xmlns:xlink="http://www.w3.org/1999/xlink" viewBox="0 0 260 260"><defs>
<linearGradient id="SVGID_1_" gradientUnits="userSpaceOnUse" x1="4.8" y1="175.4883" x2="1357.8998" y2="175.4883">
	<!-- <stop  offset="0" style="stop-color:#FFFFFF"/>
	<stop  offset="1" style="stop-color:#000000"/> -->

    <stop offset="0%" stop-color="#151515">
                <animate attributeName="stop-color" values="#151515; #0066FF; #151515" dur="3s" repeatCount="indefinite"></animate>
            </stop>

            <stop offset="100%" stop-color="#0066FF">
                <animate attributeName="stop-color" values="#0066FF; #151515; #0066FF" dur="3s" repeatCount="indefinite"></animate>
            </stop>
</linearGradient>
</defs><path d="m39.07,129.95c0-12.29,0-24.57,0-36.86,0-6.36,1.96-12.03,5.93-17.01,2.34-2.93,5.27-5.1,8.5-6.96,16.38-9.43,32.75-18.91,49.12-28.36,4.75-2.74,9.44-5.58,14.26-8.19,9.2-4.99,18.34-4.65,27.37.59,11.44,6.64,22.92,13.24,34.37,19.85,9.66,5.58,19.38,11.06,28.97,16.76,8.78,5.22,13.31,13.08,13.34,23.31.07,24.44.03,48.87.02,73.31,0,10.87-4.84,18.92-14.23,24.32-10.7,6.16-21.38,12.35-32.07,18.52-10.53,6.07-20.99,12.26-31.61,18.17-8.84,4.92-17.84,4.7-26.63-.3-10.61-6.04-21.15-12.19-31.73-18.29-10.81-6.24-21.69-12.38-32.41-18.76-8.69-5.17-13.09-13.04-13.17-23.15-.1-12.31-.02-24.63-.02-36.94Zm66.93-40.85c-.45-.43-.92-.82-1.33-1.27-5.16-5.66-10.29-11.33-15.47-16.96-.7-.76-1.56-1.44-2.45-1.95-1.4-.8-2.85-.53-3.92.68-.61.7-1.15,1.51-1.52,2.36-4.64,10.77-6.55,22.05-6.16,33.73.1,3.1.42,6.22-.58,9.24-.84,2.52-1.82,4.99-2.71,7.5-2.77,7.84-3.66,15.86-1.9,24.04.68,3.13-.06,6.11-.53,9.13-.21,1.35-1.01,1.92-2.38,1.76-1.09-.13-2.13-.58-3.06-.85.32.87,1.58,1.69,2.93,1.76.78.04,1.44-.21,1.89-.83.49-.67.93-1.37,1.34-2.09.46-.8.87-1.64,1.3-2.47,1.5,3.34,2.93,6.61,4.43,9.86.4.88.9,1.74,1.51,2.48.77.94,1.78,1.67,2.55,2.61,4.74,5.77,10.42,10.43,16.96,13.99,12.34,6.73,25.56,9.18,39.5,7.9,10.73-.99,20.67-4.32,29.75-10.16.12-.08.27-.12.41-.18.02.1.04.2.06.31-20.49,14.5-42.61,16.83-66.17,8.69-1.09,2.03-1.35,4.62-3.6,6.06,1.7.92,3.39,1.84,5.09,2.75,7.98,4.32,15.97,8.63,23.95,12.96,2.83,1.53,5.66,1.51,8.52.11,8.27-4.06,16.54-8.13,24.82-12.17,4.11-2,6.16-5.29,6.43-9.81.19-3.26.98-6.4,2.44-9.34.38-.76.89-1.36,1.58-1.87,1.18-.88,2.3-1.82,3.4-2.8,1.32-1.18,2.6-2.41,3.89-3.63,1.07-1.01,2.23-1.93,3.16-3.06,3.01-3.66,5.38-7.73,7.25-12.07,3.09-7.15,4.24-14.59,3.26-22.35-.56-4.43-1.76-8.68-3.45-12.8-.85-2.09-1.23-4.24-.95-6.5.2-1.59.38-3.19.51-4.8.89-11.34-.44-22.41-4.15-33.17-.52-1.51-1.17-3-1.98-4.37-1.18-2.01-2.74-2.34-4.69-1.04-1.08.72-2.08,1.58-3,2.49-2.59,2.58-5.14,5.21-7.68,7.84-2.75,2.85-5.62,5.61-8.18,8.63-2.63,3.11-5.42,6.17-6.89,10.1-.3.79-.36.77-1.04.26,1.24-3.2,2.48-6.41,3.73-9.65-.02,0-.14-.07-.27-.11-12.15-4.08-24.5-4.87-37.05-2.17-1.86.4-3.8.72-5.51,1.51-4.65,2.13-9.31,4.26-13.55,7.18-.46.32-1.14.32-1.71.47-.06-.14-.12-.28-.19-.43,3.47-2.99,7.64-4.95,11.43-7.5Zm71.93,90.54c.05.04.11.08.16.12.98-.9,1.96-1.78,2.93-2.69.53-.49.52-.53.26-1.46-1.15,1.38-2.25,2.7-3.35,4.02Zm-114.78-24.81c.27-1.18.55-2.35.82-3.53-.54,1.13-2.03,2.06-.82,3.53Zm47.39-12.82c2.55,2.44,5.23,4.76,8.31,6.57,1.51.89,2.87.83,4.3.12,1.71-.84,2.55-3.57,1.71-5.28-.5-1.01-1.13-1.88-2.03-2.58-.92-.71-1.78-1.5-2.67-2.26-2-1.72-2.04-3.18-.23-5.14,1.22-1.32,2.42-2.66,3.49-4.1,1.27-1.7.52-3.39-1.02-4.85-1.22-1.15-2.93-1.02-4.3.45-3.09,3.33-6.09,6.74-9.07,10.17-.41.47-.54,1.17-.8,1.77.03,2.11.96,3.83,2.31,5.12Zm-19.62-5.79c-.31-.19-.57-.44-.87-.65-2.5-1.78-5-3.56-7.52-5.32-.28-.19-.68-.35-1-.31-1.34.17-2.07,1.04-2.45,2.28-.31,1.04-.39,2.06.52,2.83,1.06.89,2.16,1.72,3.29,2.52,1.5,1.06,1.75,2.28.66,3.8-.71.99-1.5,1.93-2.14,2.96-1.1,1.76-1.34,3.29-.19,4.76,1.05,1.34,3,1.55,4.25.38,1.98-1.85,3.48-4.08,5.09-6.23,1.02-1.37,1.46-2.9,1.54-4.55.14-1.08-.24-1.91-1.18-2.47Z" style="fill:url(#SVGID_1_);"/></svg>