<?xml version="1.0" encoding="UTF-8"?><svg id="a" xmlns="http://www.w3.org/2000/svg" viewBox="0 0 260 319.87"><path d="m46.61,286.46c-3.42,0-6.25-1.16-8.51-3.48-2.23-2.38-3.34-5.31-3.34-8.79s1.11-6.47,3.34-8.79c2.26-2.32,5.09-3.48,8.51-3.48,2.35,0,4.4.59,6.16,1.76,1.75,1.17,3.07,2.8,3.95,4.86l-3.95,1.65c-1.22-2.88-3.37-4.32-6.44-4.32-1.97,0-3.68.8-5.12,2.4-1.41,1.6-2.12,3.57-2.12,5.92s.71,4.32,2.12,5.92c1.44,1.6,3.15,2.4,5.12,2.4,3.16,0,5.39-1.44,6.67-4.32l3.85,1.64c-.85,2.07-2.17,3.69-3.97,4.86s-3.89,1.76-6.27,1.76Zm12.46-12.27c0-3.54,1.11-6.47,3.34-8.79,2.26-2.32,5.09-3.48,8.51-3.48s6.23,1.16,8.46,3.48c2.26,2.32,3.38,5.25,3.38,8.79s-1.13,6.5-3.38,8.79c-2.23,2.32-5.04,3.48-8.46,3.48s-6.25-1.16-8.51-3.48c-2.23-2.32-3.34-5.25-3.34-8.79Zm4.32,0c0,2.48.72,4.48,2.16,6.02s3.23,2.3,5.36,2.3,3.92-.77,5.36-2.3,2.16-3.54,2.16-6.02-.72-4.43-2.16-5.97c-1.47-1.57-3.26-2.35-5.36-2.35s-3.89.78-5.36,2.35c-1.44,1.54-2.16,3.53-2.16,5.97Zm40.47,8.74h-.38c-.56.97-1.44,1.8-2.63,2.49-1.19.69-2.66,1.03-4.42,1.03-1.47,0-2.88-.31-4.21-.92-1.33-.61-2.51-1.46-3.52-2.54-1.02-1.08-1.83-2.37-2.42-3.88-.6-1.5-.89-3.15-.89-4.93s.3-3.43.89-4.94c.59-1.5,1.4-2.8,2.42-3.88,1.02-1.08,2.19-1.93,3.52-2.54,1.33-.61,2.73-.92,4.21-.92,1.75,0,3.23.35,4.42,1.03,1.19.69,2.07,1.52,2.63,2.49h.38l-.38-3.29v-10.11h6.16v33.65h-5.78v-2.77Zm-6.16-2.16c.81,0,1.59-.15,2.33-.45.74-.3,1.39-.73,1.95-1.29.56-.56,1.02-1.25,1.36-2.07.34-.81.52-1.74.52-2.77s-.17-1.96-.52-2.77c-.34-.81-.8-1.5-1.36-2.07-.56-.56-1.21-.99-1.95-1.29s-1.51-.45-2.33-.45-1.59.16-2.33.47c-.74.31-1.39.75-1.95,1.32s-1.02,1.25-1.36,2.07c-.35.82-.52,1.72-.52,2.73s.17,1.91.52,2.73c.34.82.8,1.5,1.36,2.07.56.56,1.21,1,1.95,1.32.74.31,1.51.47,2.33.47Zm31.16,2.49h-.38c-.72.88-1.59,1.63-2.61,2.26-1.02.63-2.33.94-3.92.94-1.19,0-2.31-.2-3.36-.59-1.05-.39-1.97-.93-2.75-1.62-.78-.69-1.39-1.52-1.83-2.49-.44-.97-.66-2.04-.66-3.2s.23-2.26.71-3.22c.47-.96,1.13-1.78,1.97-2.47.85-.69,1.84-1.21,2.98-1.57,1.14-.36,2.39-.54,3.74-.54,1.5,0,2.74.12,3.71.35.97.24,1.77.48,2.4.73v-.71c0-1.22-.49-2.23-1.46-3.03-.97-.8-2.18-1.2-3.62-1.2-2.13,0-3.93.89-5.41,2.68l-4.46-3.05c2.44-3.07,5.78-4.61,10.01-4.61,3.57,0,6.3.84,8.18,2.51,1.88,1.68,2.82,4.16,2.82,7.45v13.82h-6.06v-2.44Zm0-6.91c-.72-.34-1.46-.62-2.23-.82-.77-.2-1.61-.31-2.51-.31-1.47,0-2.61.32-3.41.96-.8.64-1.2,1.43-1.2,2.37s.38,1.69,1.15,2.26c.77.56,1.65.85,2.66.85.81,0,1.57-.15,2.26-.45.69-.3,1.28-.69,1.76-1.17.49-.49.86-1.05,1.13-1.69.27-.64.4-1.31.4-2Zm10.95-13.68h5.78v3.2h.38c.28-.56.66-1.08,1.13-1.55.47-.47.99-.88,1.57-1.23s1.21-.63,1.88-.85c.67-.21,1.34-.32,2-.32.81,0,1.51.09,2.09.26.58.17,1.07.4,1.48.68l-1.65,5.5c-.38-.19-.79-.34-1.25-.45-.46-.11-1.01-.17-1.67-.17-.85,0-1.61.17-2.3.5-.69.33-1.28.8-1.76,1.39-.49.6-.86,1.3-1.13,2.1-.27.8-.4,1.68-.4,2.62v11.34h-6.16v-23.03Zm19.36-10.62h6.16v18.33h.28l7.71-7.71h7.61v.38l-8.55,8.32,9.26,13.96v.38h-7.28l-6.3-10.11-2.73,2.68v7.43h-6.16v-33.65Zm38.63,31.21h-.38c-.72.88-1.59,1.63-2.61,2.26-1.02.63-2.33.94-3.92.94-1.19,0-2.31-.2-3.36-.59-1.05-.39-1.97-.93-2.75-1.62-.78-.69-1.39-1.52-1.83-2.49-.44-.97-.66-2.04-.66-3.2s.23-2.26.71-3.22c.47-.96,1.13-1.78,1.97-2.47.85-.69,1.84-1.21,2.98-1.57,1.14-.36,2.39-.54,3.74-.54,1.5,0,2.74.12,3.71.35.97.24,1.77.48,2.4.73v-.71c0-1.22-.49-2.23-1.46-3.03-.97-.8-2.18-1.2-3.62-1.2-2.13,0-3.93.89-5.41,2.68l-4.46-3.05c2.44-3.07,5.78-4.61,10.01-4.61,3.57,0,6.3.84,8.18,2.51,1.88,1.68,2.82,4.16,2.82,7.45v13.82h-6.06v-2.44Zm0-6.91c-.72-.34-1.46-.62-2.23-.82-.77-.2-1.61-.31-2.51-.31-1.47,0-2.61.32-3.41.96-.8.64-1.2,1.43-1.2,2.37s.38,1.69,1.15,2.26c.77.56,1.65.85,2.66.85.81,0,1.57-.15,2.26-.45.69-.3,1.28-.69,1.76-1.17.49-.49.86-1.05,1.13-1.69.27-.64.4-1.31.4-2Zm13.02-8.41h-4.04v-5.26h4.04v-7.05h6.16v7.05h5.64v5.26h-5.64v9.2c0,.55.05,1.06.16,1.53.11.47.32.86.63,1.19.44.52,1.06.77,1.88.77.53,0,.96-.05,1.27-.16.31-.11.61-.26.89-.45l1.74,5.4c-.72.34-1.5.6-2.33.78s-1.75.26-2.75.26c-1.16,0-2.2-.18-3.13-.55s-1.7-.87-2.33-1.51c-1.47-1.44-2.21-3.49-2.21-6.14v-10.31ZM38.05,136.72c0-12.29,0-24.57,0-36.86,0-6.36,1.96-12.03,5.93-17.01,2.34-2.93,5.27-5.1,8.5-6.96,16.38-9.43,32.75-18.91,49.12-28.36,4.75-2.74,9.44-5.58,14.26-8.19,9.2-4.99,18.34-4.65,27.37.59,11.44,6.64,22.92,13.24,34.37,19.85,9.66,5.58,19.38,11.06,28.97,16.76,8.78,5.22,13.31,13.08,13.34,23.31.07,24.44.03,48.87.02,73.31,0,10.87-4.84,18.92-14.23,24.32-10.7,6.16-21.38,12.35-32.07,18.52-10.53,6.07-20.99,12.26-31.61,18.17-8.84,4.92-17.84,4.7-26.63-.3-10.61-6.04-21.15-12.19-31.73-18.29-10.81-6.24-21.69-12.38-32.41-18.76-8.69-5.17-13.09-13.04-13.17-23.15-.1-12.31-.02-24.63-.02-36.94Zm66.93-40.85c-.45-.43-.92-.82-1.33-1.27-5.16-5.66-10.29-11.33-15.47-16.96-.7-.76-1.56-1.44-2.45-1.95-1.4-.8-2.85-.53-3.92.68-.61.7-1.15,1.51-1.52,2.36-4.64,10.77-6.55,22.05-6.16,33.73.1,3.1.42,6.22-.58,9.24-.84,2.52-1.82,4.99-2.71,7.5-2.77,7.84-3.66,15.86-1.9,24.04.68,3.13-.06,6.11-.53,9.13-.21,1.35-1.01,1.92-2.38,1.76-1.09-.13-2.13-.58-3.06-.85.32.87,1.58,1.69,2.93,1.76.78.04,1.44-.21,1.89-.83.49-.67.93-1.37,1.34-2.09.46-.8.87-1.64,1.3-2.47,1.5,3.34,2.93,6.61,4.43,9.86.4.88.9,1.74,1.51,2.48.77.94,1.78,1.67,2.55,2.61,4.74,5.77,10.42,10.43,16.96,13.99,12.34,6.73,25.56,9.18,39.5,7.9,10.73-.99,20.67-4.32,29.75-10.16.12-.08.27-.12.41-.18.02.1.04.2.06.31-20.49,14.5-42.61,16.83-66.17,8.69-1.09,2.03-1.35,4.62-3.6,6.06,1.7.92,3.39,1.84,5.09,2.75,7.98,4.32,15.97,8.63,23.95,12.96,2.83,1.53,5.66,1.51,8.52.11,8.27-4.06,16.54-8.13,24.82-12.17,4.11-2,6.16-5.29,6.43-9.81.19-3.26.98-6.4,2.44-9.34.38-.76.89-1.36,1.58-1.87,1.18-.88,2.3-1.82,3.4-2.8,1.32-1.18,2.6-2.41,3.89-3.63,1.07-1.01,2.23-1.93,3.16-3.06,3.01-3.66,5.38-7.73,7.25-12.07,3.09-7.15,4.24-14.59,3.26-22.35-.56-4.43-1.76-8.68-3.45-12.8-.85-2.09-1.23-4.24-.95-6.5.2-1.59.38-3.19.51-4.8.89-11.34-.44-22.41-4.15-33.17-.52-1.51-1.17-3-1.98-4.37-1.18-2.01-2.74-2.34-4.69-1.04-1.08.72-2.08,1.58-3,2.49-2.59,2.58-5.14,5.21-7.68,7.84-2.75,2.85-5.62,5.61-8.18,8.63-2.63,3.11-5.42,6.17-6.89,10.1-.3.79-.36.77-1.04.26,1.24-3.2,2.48-6.41,3.73-9.65-.02,0-.14-.07-.27-.11-12.15-4.08-24.5-4.87-37.05-2.17-1.86.4-3.8.72-5.51,1.51-4.65,2.13-9.31,4.26-13.55,7.18-.46.32-1.14.32-1.71.47-.06-.14-.12-.28-.19-.43,3.47-2.99,7.64-4.95,11.43-7.5Zm71.93,90.54c.05.04.11.08.16.12.98-.9,1.96-1.78,2.93-2.69.53-.49.52-.53.26-1.46-1.15,1.38-2.25,2.7-3.35,4.02Zm-114.78-24.81c.27-1.18.55-2.35.82-3.53-.54,1.13-2.03,2.06-.82,3.53Zm47.39-12.82c2.55,2.44,5.23,4.76,8.31,6.57,1.51.89,2.87.83,4.3.12,1.71-.84,2.55-3.57,1.71-5.28-.5-1.01-1.13-1.88-2.03-2.58-.92-.71-1.78-1.5-2.67-2.26-2-1.72-2.04-3.18-.23-5.14,1.22-1.32,2.42-2.66,3.49-4.1,1.27-1.7.52-3.39-1.02-4.85-1.22-1.15-2.93-1.02-4.3.45-3.09,3.33-6.09,6.74-9.07,10.17-.41.47-.54,1.17-.8,1.77.03,2.11.96,3.83,2.31,5.12Zm-19.62-5.79c-.31-.19-.57-.44-.87-.65-2.5-1.78-5-3.56-7.52-5.32-.28-.19-.68-.35-1-.31-1.34.17-2.07,1.04-2.45,2.28-.31,1.04-.39,2.06.52,2.83,1.06.89,2.16,1.72,3.29,2.52,1.5,1.06,1.75,2.28.66,3.8-.71.99-1.5,1.93-2.14,2.96-1.1,1.76-1.34,3.29-.19,4.76,1.05,1.34,3,1.55,4.25.38,1.98-1.85,3.48-4.08,5.09-6.23,1.02-1.37,1.46-2.9,1.54-4.55.14-1.08-.24-1.91-1.18-2.47Z" style="fill:#fff;"/></svg>